<svg xmlns="http://www.w3.org/2000/svg" width="18.6056" height="26.9156" viewBox="0 0 18.6056 26.9156"><title>recycle_logo</title><g style="isolation:isolate"><g id="Layer_1" data-name="Layer 1"><path d="M30.5941,36.5246c0,.8686-2.6762,1.5729-5.9774,1.5729s-5.9776-.7043-5.9776-1.5729,2.6762-1.5732,5.9776-1.5732S30.5941,35.6559,30.5941,36.5246Z" transform="translate(-15.3933 -11.1818)" fill="#e4e3e5" style="mix-blend-mode:multiply"/><path d="M24.696,11.1818a9.3025,9.3025,0,0,0-9.3027,9.3026c0,5.4935,9.3027,16.1029,9.3027,16.1029s9.3028-10.2014,9.3028-16.1029A9.3026,9.3026,0,0,0,24.696,11.1818Zm0,14.6463a5.7247,5.7247,0,1,1,5.7245-5.7246A5.7246,5.7246,0,0,1,24.696,25.8281Z" transform="translate(-15.3933 -11.1818)" fill="#e0e027"/></g></g></svg>