<svg xmlns="http://www.w3.org/2000/svg" width="93.0279" height="134.5781" viewBox="0 0 93.0279 134.5781"><title>recycle_logo_v2</title><g style="isolation:isolate"><g id="Layer_1" data-name="Layer 1"><path d="M155.1865,185.0645c0,4.3427-13.3813,7.8642-29.8872,7.8642s-29.8882-3.5215-29.8882-7.8642,13.3814-7.8663,29.8882-7.8663S155.1865,180.7207,155.1865,185.0645Z" transform="translate(-79.1821 -58.3506)" fill="#e4e3e5" style="mix-blend-mode:multiply"/><path d="M125.6958,58.3506a46.5126,46.5126,0,0,0-46.5137,46.5127c0,27.4678,46.5137,80.5146,46.5137,80.5146S172.21,134.3711,172.21,104.8633A46.5127,46.5127,0,0,0,125.6958,58.3506Zm0,73.2314a28.6235,28.6235,0,1,1,28.6226-28.623A28.6229,28.6229,0,0,1,125.6958,131.582Z" transform="translate(-79.1821 -58.3506)" fill="#e0e027"/></g></g></svg>