<svg xmlns="http://www.w3.org/2000/svg" width="47.0123" height="67.5367" viewBox="0 0 47.0123 67.5367"><title>recycle_v2</title><g id="Layer_2" data-name="Layer 2"><g id="Layer_1-2" data-name="Layer 1"><path d="M38.2509,63.6047c0,2.1713-6.69,3.932-14.9431,3.932S8.3642,65.776,8.3642,63.6047s6.6905-3.933,14.9436-3.933S38.2509,61.4329,38.2509,63.6047Z" fill="#e4e3e5"/><path d="M23.506.25A23.2555,23.2555,0,0,0,.25,23.5049v.0006c0,13.7335,23.256,40.2559,23.256,40.2559S46.7623,38.2589,46.7623,23.5055A23.2555,23.2555,0,0,0,23.5068.25Zm0,36.6144A14.3113,14.3113,0,1,1,37.8168,22.5527v.0007A14.3109,14.3109,0,0,1,23.506,36.8644Z" fill="#eae400" stroke="#0f0f0f" stroke-miterlimit="10" stroke-width="0.5"/></g></g></svg>