<svg xmlns="http://www.w3.org/2000/svg" width="62.5164" height="89.9656" viewBox="0 0 62.5164 89.9656"><title>recycle_logo_july17</title><g id="Layer_2" data-name="Layer 2"><g id="Layer_1-2" data-name="Layer 1"><path d="M50.9178,84.723c0,2.895-8.92,5.2426-19.9241,5.2426S11.069,87.618,11.069,84.723s8.9206-5.244,19.9247-5.244S50.9178,81.8272,50.9178,84.723Z" fill="#e4e3e5"/><path d="M31.258.25A31.0073,31.0073,0,0,0,.25,31.2566v.0008c0,18.3112,31.008,53.6745,31.008,53.6745S62.2664,50.9286,62.2664,31.2574A31.0074,31.0074,0,0,0,31.259.25Zm0,48.8192A19.0817,19.0817,0,1,1,50.3391,29.987v.0009A19.0812,19.0812,0,0,1,31.258,49.0692Z" fill="#eae400" stroke="#0f0f0f" stroke-miterlimit="10" stroke-width="0.5"/></g></g></svg>