<svg id="Layer_1" data-name="Layer 1" xmlns="http://www.w3.org/2000/svg" width="62.5164" height="89.9656" viewBox="0 0 62.5164 89.9656"><title>recycle-logo-smallish</title><path d="M70.5334,88.6754c0,2.895-8.92,5.2426-19.9241,5.2426S30.6845,91.57,30.6845,88.6754s8.9207-5.244,19.9248-5.244S70.5334,85.78,70.5334,88.6754Z" transform="translate(-19.6156 -3.9524)" fill="#e4e3e5"/><path d="M50.8736,4.2024A31.0073,31.0073,0,0,0,19.8656,35.209V35.21c0,18.3112,31.008,53.6745,31.008,53.6745S81.882,54.881,81.882,35.21A31.0074,31.0074,0,0,0,50.8746,4.2024Zm0,48.8193A19.0817,19.0817,0,1,1,69.9547,33.9394V33.94A19.0814,19.0814,0,0,1,50.8736,53.0217Z" transform="translate(-19.6156 -3.9524)" fill="#ff0" stroke="#0f0f0f" stroke-miterlimit="10" stroke-width="0.5"/></svg>